<svg t="1745329270572" class="icon" viewBox="0 0 1024 1024" version="1.1" xmlns="http://www.w3.org/2000/svg" p-id="7204" width="200" height="200"><path d="M908.894351 183.553754l-282.23155 763.752888a31.171122 31.171122 0 0 1-10.450783 14.92106c-1.208183 0.906137-6.947052 4.047413-8.638509 4.711914l-0.302045 0.120818a7.551144 7.551144 0 0 1-1.510229 0.543682l-0.543682 0.120819-2.295548 0.483273-0.966547 0.241636-1.026955 0.120819-2.11432 0.181227c-2.416366 0.362455-4.651505 0-4.651505 0l-14.135741-5.255596s0.604092-0.241637-0.906137-1.147774l-0.362455-0.241636a24.948979 24.948979 0 0 1-1.751866-1.268593h-0.060409a31.593986 31.593986 0 0 1-1.993502-1.812274l-1.268592-1.268592-0.181227-0.241637-1.389411-1.631047-0.362455-0.422864-1.147774-1.510229-0.241636-0.241636c-0.422864-0.664501-0.906137-1.268592-1.268592-1.933093l-0.06041-0.120818c-0.483273-0.664501-0.845728-1.38941-1.208183-2.053912v1.751866c-0.060409-0.120818-0.060409-0.362455-0.181227-0.422864L385.449063 586.301559 20.456977 403.624288a31.533576 31.533576 0 0 1 7.188689-59.321785L788.076051 62.735453c37.876537-16.552107 104.326603-16.672926 119.187253 21.626476 14.860651 38.238992 3.624549 92.667637 1.631047 99.191825z m-111.5757-7.249098c-14.19615-13.773286-43.917452-1.812275-65.785565 6.947052L234.667824 370.701302a19.089292 19.089292 0 0 0-12.867149 10.088328 18.606018 18.606018 0 0 0 8.638509 25.069797L461.262547 508.313346l108.615653 219.647671 0.120818 0.241636v-1.026955l0.72491 1.208183 0.060409 0.060409 0.72491 1.147774 0.120818 0.120818 0.72491 0.906137a395986958769.063 395986958769.063 0 0 0 1.026955 1.208183l0.120819 0.181228 0.785319 0.72491 0.241636 0.241636 0.906137 0.845728h0.06041l1.026955 0.72491 0.181228 0.120818c0.966546 0.604092 0.604092 0.72491 0.604091 0.72491l8.396872 3.141276a12.08183 12.08183 0 0 0 2.778821 0l1.268592-0.181227 0.604092-0.060409 0.543682-0.120819 1.38941-0.302046 0.302046-0.060409a5.316005 5.316005 0 0 0 0.906137-0.302045l0.181228-0.06041a46.575455 46.575455 0 0 0 5.195187-2.83923 18.606018 18.606018 0 0 0 6.222142-8.819736l183.341772-484.17934c1.268592-3.926595 28.392301-46.333818 8.880145-65.302291z" fill="#FFFFFF" p-id="7205"></path></svg>