<svg t="1745248166684" class="icon" viewBox="0 0 1024 1024" version="1.1" xmlns="http://www.w3.org/2000/svg" p-id="6657" width="200" height="200"><path d="M699.52 579.84c12.16-2.56 23.68-3.84 36.48-3.84V512c-16.64 0-33.28 1.28-48.64 5.12a212.032 212.032 0 0 0-74.88 31.36c-12.8 8.32-24.32 17.92-35.2 28.8-10.88 10.88-20.48 22.4-28.8 35.2a212.032 212.032 0 0 0-31.36 74.88c-3.84 15.36-5.12 32-5.12 48.64 0 16 1.28 32.64 5.12 48a212.032 212.032 0 0 0 31.36 74.88c8.32 12.8 17.92 24.32 28.8 35.2 10.88 10.88 22.4 20.48 35.2 28.8a212.032 212.032 0 0 0 74.88 31.36c15.36 3.84 32 5.76 48.64 5.76v-64c-12.8 0-24.32-1.92-36.48-4.48-8.96-1.92-17.28-4.48-26.24-8.32-8.96-3.84-17.28-8.32-24.96-13.44-9.6-5.76-17.92-12.8-25.6-21.12-8.32-7.68-15.36-16-21.12-25.6-5.12-7.68-9.6-16-13.44-24.96s-6.4-17.28-8.32-26.24a170.624 170.624 0 0 1 0-72.32c1.92-8.96 4.48-17.28 8.32-26.24 3.84-8.96 8.32-17.28 13.44-24.96 5.76-9.6 12.8-17.92 21.12-25.6 7.68-8.32 16-15.36 25.6-21.12 7.68-5.12 16-9.6 24.96-13.44s17.28-6.4 26.24-8.32zM784 517.12c-15.36-3.84-32-5.12-48-5.12v64c12.16 0 23.68 1.28 35.84 3.84 8.96 1.92 17.28 4.48 26.24 8.32 8.96 3.84 17.28 8.32 24.96 13.44 9.6 5.76 17.92 12.8 25.6 21.12 8.32 7.68 15.36 16 21.12 25.6 5.12 7.68 9.6 16 13.44 24.96s6.4 17.28 8.32 26.24c2.56 12.16 4.48 23.68 4.48 36.48 0 12.16-1.92 23.68-4.48 35.84-1.92 8.96-4.48 17.28-8.32 26.24-3.84 8.96-8.32 17.28-13.44 24.96-5.76 9.6-12.8 17.92-21.12 25.6-7.68 8.32-16 15.36-25.6 21.12-7.68 5.12-16 9.6-24.96 13.44s-17.28 6.4-26.24 8.32c-12.16 2.56-23.68 4.48-35.84 4.48v64c16 0 32.64-1.92 48-5.76a212.032 212.032 0 0 0 74.88-31.36c12.8-8.32 24.32-17.92 35.2-28.8 10.88-10.88 20.48-22.4 28.8-35.2a212.032 212.032 0 0 0 31.36-74.88c3.84-15.36 5.76-32 5.76-48 0-16.64-1.92-33.28-5.76-48.64a212.032 212.032 0 0 0-31.36-74.88c-8.32-12.8-17.92-24.32-28.8-35.2-10.88-10.88-22.4-20.48-35.2-28.8a212.032 212.032 0 0 0-74.88-31.36z" p-id="6658" fill="#FF3B30"></path><path d="M640 704c-18.56 0-32 14.08-32 32s13.44 32 32 32h192c17.92 0 32-14.08 32-32s-14.08-32-32-32h-192zM411.52 131.84C423.68 129.28 435.2 128 448 128V64c-16.64 0-33.28 1.28-48.64 5.12a212.032 212.032 0 0 0-74.88 31.36c-12.8 8.32-24.32 17.92-35.2 28.8-10.88 10.88-20.48 22.4-28.8 35.2a212.032 212.032 0 0 0-31.36 74.88c-3.84 15.36-5.12 32-5.12 48.64 0 16 1.28 32.64 5.12 48a212.032 212.032 0 0 0 31.36 74.88c8.32 12.8 17.92 24.32 28.8 35.2 10.88 10.88 22.4 20.48 35.2 28.8a212.032 212.032 0 0 0 74.88 31.36c15.36 3.84 32 5.76 48.64 5.76V448c-12.8 0-24.32-1.92-36.48-4.48-8.96-1.92-17.28-4.48-26.24-8.32-8.96-3.84-17.28-8.32-24.96-13.44-9.6-5.76-17.92-12.8-25.6-21.12-8.32-7.68-15.36-16-21.12-25.6-5.12-7.68-9.6-16-13.44-24.96s-6.4-17.28-8.32-26.24a170.624 170.624 0 0 1 0-72.32c1.92-8.96 4.48-17.28 8.32-26.24 3.84-8.96 8.32-17.28 13.44-24.96 5.76-9.6 12.8-17.92 21.12-25.6 7.68-8.32 16-15.36 25.6-21.12 7.68-5.12 16-9.6 24.96-13.44s17.28-6.4 26.24-8.32zM496 69.12C480.64 65.28 464 64 448 64v64c12.16 0 23.68 1.28 35.84 3.84 8.96 1.92 17.28 4.48 26.24 8.32 8.96 3.84 17.28 8.32 24.96 13.44 9.6 5.76 17.92 12.8 25.6 21.12 8.32 7.68 15.36 16 21.12 25.6 5.12 7.68 9.6 16 13.44 24.96s6.4 17.28 8.32 26.24c2.56 12.16 4.48 23.68 4.48 36.48 0 12.16-1.92 23.68-4.48 35.84-1.92 8.96-4.48 17.28-8.32 26.24-3.84 8.96-8.32 17.28-13.44 24.96-5.76 9.6-12.8 17.92-21.12 25.6-7.68 8.32-16 15.36-25.6 21.12-7.68 5.12-16 9.6-24.96 13.44s-17.28 6.4-26.24 8.32C471.68 446.08 460.16 448 448 448v64c16 0 32.64-1.92 48-5.76a212.032 212.032 0 0 0 74.88-31.36c12.8-8.32 24.32-17.92 35.2-28.8 10.88-10.88 20.48-22.4 28.8-35.2a212.032 212.032 0 0 0 31.36-74.88c3.84-15.36 5.76-32 5.76-48 0-16.64-1.92-33.28-5.76-48.64a212.032 212.032 0 0 0-31.36-74.88c-8.32-12.8-17.92-24.32-28.8-35.2-10.88-10.88-22.4-20.48-35.2-28.8a212.032 212.032 0 0 0-74.88-31.36z" p-id="6659" fill="#FF3B30"></path><path d="M64 768v128h432c-12.8-19.84-23.68-41.6-32-64H128v-64c0-19.84 1.92-39.04 5.76-56.96 3.84-14.72 8.32-28.8 14.08-42.88 5.76-14.08 13.44-28.16 21.76-40.32 9.6-14.72 20.48-28.8 33.28-40.96 12.16-12.8 26.24-23.68 40.96-33.28 12.16-8.32 26.24-16 40.32-21.76 14.08-5.76 28.16-10.24 42.24-14.08 18.56-3.84 37.76-5.76 57.6-5.76h128c12.8 0 26.24 0.64 39.04 2.56 22.4-18.56 48-34.56 75.52-45.44-14.72-5.76-30.08-10.24-45.44-14.08C558.72 449.92 535.68 448 512 448H384c-24.32 0-47.36 1.92-69.76 7.04a325.376 325.376 0 0 0-156.8 86.4c-15.36 15.36-29.44 32.64-40.96 50.56a325.376 325.376 0 0 0-45.44 106.24c-5.12 22.4-7.04 45.44-7.04 69.76z" p-id="6660" fill="#FF3B30"></path></svg>