<svg t="1745246853234" class="icon" viewBox="0 0 1024 1024" version="1.1" xmlns="http://www.w3.org/2000/svg" p-id="9213" width="200" height="200"><path d="M769.1 678.1c9.5-8.7 9.9-23.2 1-32.5-49.6-51.5-112.5-88.5-180.9-108.6C667 496.2 720 416.1 720 324.1c0-133.3-111.3-241.7-248-241.7S224 190.8 224 324.1c0 91.9 52.8 171.9 130.4 212.8C186.1 586.3 63 738.6 63 918.7c0 12.7 10.6 23 23.6 23 13 0 23.6-10.3 23.6-23 0-194.5 162.4-352.8 361.9-352.8 100.9 0 194.6 39.5 263.8 111.2 8.8 9.2 23.7 9.7 33.2 1z m-497.9-354c0-108 90.1-195.8 200.9-195.8S673 216.1 673 324.1c0 108-90.1 195.8-200.9 195.8s-200.9-87.8-200.9-195.8z" p-id="9214" fill="#07c160"></path><path d="M573.6 743.4c-11.3 0-20.5 9.2-20.5 20.4 0 11.3 9.2 20.5 20.5 20.5h385.3l-72.2-102.1-33.8 23.8 26.2 37.4H573.6zM961 855.6c0-11.3-9.2-20.4-20.4-20.4H561l49.3 99 37.2-18.4-19.6-39.7h312.7c11.2 0 20.4-9.2 20.4-20.5z" fill="#07c160" p-id="9215"></path></svg>