<svg t="1745288798480" class="icon" viewBox="0 0 1024 1024" version="1.1" xmlns="http://www.w3.org/2000/svg" p-id="4251" width="200" height="200"><path d="M611.221983 744.460049c0 22.526996 18.123997 40.649993 40.649992 40.649993h314.559945c22.527996 0 40.651993-18.122997 40.651993-40.649993s-18.123997-40.651993-40.651993-40.651993h-314.559945c-22.525996 0-40.649993 18.123997-40.649992 40.651993z m355.209937 78.741986h-314.559945c-22.525996 0-40.649993 18.123997-40.649992 40.650993 0 22.526996 18.123997 40.650993 40.649992 40.650993h314.559945c22.527996 0 40.651993-18.123997 40.651993-40.650993 0-22.424996-18.123997-40.650993-40.650993-40.650993z m0 119.495979h-314.559945c-22.525996 0-40.649993 18.123997-40.649992 40.649993S629.345979 1024 651.871975 1024h314.559945c22.527996 0 40.651993-18.123997 40.651993-40.650993s-18.123997-40.650993-40.650993-40.650993z" p-id="4252" fill="#07C160"></path><path d="M843.249942 657.423064c-48.022992-43.312992-105.364981-77.513986-169.56697-99.220982 96.661983-51.914991 157.074972-151.340973 157.689972-259.675954C828.503944 130.904157 687.914969-2.72282 517.425999 0.04218 350.931028 2.80718 216.691052 134.897156 213.926052 298.526128c0.41 104.033982 56.21499 200.183965 147.142975 253.429955-203.255964 60.617989-342.61694 244.212957-344.15294 452.99792 0 6.553999 0.717 12.799998 1.024 19.045997h68.605988c-0.308-6.245999-1.024-12.491998-1.024-19.045997 4.709999-229.77596 197.929965-412.244928 431.597924-407.534928 77.000986 1.536 148.985974 23.243996 210.525963 60.003989H843.249942zM522.443998 529.940087c-131.065977 1.127-238.479958-102.394982-239.912958-231.413959-2.56-130.349977 102.804982-237.967958 235.305959-240.527958S759.899956 159.063152 762.459956 289.413129 659.654974 527.483087 527.051997 529.940087h-4.607999z" p-id="4253" fill="#07C160"></path></svg>